<svg xmlns="http://www.w3.org/2000/svg" width="1200" height="630" viewBox="0 0 1200 630" role="img" aria-labelledby="title desc">
  <title id="title">Block Bash Online</title>
  <desc id="desc">Capa do jogo Block Bash Online.</desc>
  <defs>
    <linearGradient id="bg" x1="0" x2="1" y1="0" y2="1">
      <stop offset="0%" stop-color="#0f1021"/>
      <stop offset="100%" stop-color="#1d2045"/>
    </linearGradient>
    <linearGradient id="accent" x1="0" x2="1">
      <stop offset="0%" stop-color="#8b5cf6"/>
      <stop offset="100%" stop-color="#c084fc"/>
    </linearGradient>
    <filter id="shadow" x="-20%" y="-20%" width="140%" height="140%">
      <feDropShadow dx="0" dy="14" stdDeviation="18" flood-color="#000000" flood-opacity="0.25"/>
    </filter>
  </defs>
  <rect width="1200" height="630" fill="url(#bg)"/>
  <circle cx="1030" cy="110" r="150" fill="#ffffff" fill-opacity="0.05"/>
  <circle cx="170" cy="530" r="140" fill="#ffffff" fill-opacity="0.04"/>
  <g filter="url(#shadow)">
    <rect x="88" y="74" width="1024" height="482" rx="36" fill="#ffffff" fill-opacity="0.08" stroke="#ffffff" stroke-opacity="0.12"/>
    <text x="140" y="170" fill="#c084fc" font-size="28" font-family="Inter, Arial, sans-serif" font-weight="800" letter-spacing="4">PUZZLE WEB</text>
    <text x="140" y="255" fill="#f7f7ff" font-size="72" font-family="Inter, Arial, sans-serif" font-weight="800">Block Bash Online</text>
    <text x="140" y="320" fill="#c1c7ea" font-size="30" font-family="Inter, Arial, sans-serif">Jogo de blocos grátis no navegador</text>
    <text x="140" y="365" fill="#c1c7ea" font-size="28" font-family="Inter, Arial, sans-serif">Puzzle 8x8 com 3 peças por rodada, mobile e desktop</text>

    <rect x="142" y="415" width="230" height="74" rx="18" fill="url(#accent)"/>
    <text x="185" y="462" fill="#ffffff" font-size="30" font-family="Inter, Arial, sans-serif" font-weight="800">Jogar agora</text>

    <g transform="translate(770 166)">
      <rect x="0" y="0" width="220" height="220" rx="28" fill="#141833" stroke="#ffffff" stroke-opacity="0.08"/>
      <g transform="translate(28 28)">
        <rect x="0" y="0" width="46" height="46" rx="12" fill="#8b5cf6"/>
        <rect x="58" y="0" width="46" height="46" rx="12" fill="#8b5cf6"/>
        <rect x="116" y="0" width="46" height="46" rx="12" fill="#8b5cf6"/>
        <rect x="0" y="58" width="46" height="46" rx="12" fill="#ec4899"/>
        <rect x="58" y="58" width="46" height="46" rx="12" fill="#f59e0b"/>
        <rect x="116" y="58" width="46" height="46" rx="12" fill="#22c55e"/>
        <rect x="0" y="116" width="46" height="46" rx="12" fill="#60a5fa"/>
        <rect x="58" y="116" width="46" height="46" rx="12" fill="#06b6d4"/>
        <rect x="116" y="116" width="46" height="46" rx="12" fill="#8b5cf6"/>
      </g>
    </g>
  </g>
</svg>
